<svg xmlns="http://www.w3.org/2000/svg" viewBox="0 0 19.33 19.32"><defs><style>.cls-1{fill:#231f20;}</style></defs><g id="Layer_2" data-name="Layer 2"><g id="Layer_1-2" data-name="Layer 1"><path class="cls-1" d="M3.35,17.31a5.28,5.28,0,0,1-.5-.9A4.75,4.75,0,0,1,0,12.06,5,5,0,0,1,.64,9.65,4.66,4.66,0,0,1,0,7.32a5,5,0,0,1,2-4,4.24,4.24,0,0,1,.9-.51,4.81,4.81,0,0,1,1.6-2A4.77,4.77,0,0,1,7.24,0,4.87,4.87,0,0,1,9.67.64,4.62,4.62,0,0,1,12,0,4.84,4.84,0,0,1,16,2a5,5,0,0,1,.5.9,4.83,4.83,0,0,1,2,1.61,4.72,4.72,0,0,1,.86,2.73,5,5,0,0,1-.63,2.41,4.93,4.93,0,0,1,.64,2.43,4.7,4.7,0,0,1-2,3.9,6.56,6.56,0,0,1-.9.49,4.83,4.83,0,0,1-1.61,2,4.88,4.88,0,0,1-2.76.86,5,5,0,0,1-2.38-.62,4.85,4.85,0,0,1-6.32-1.38Zm-.87-2.8a5.22,5.22,0,0,1,.77-2.74A4.73,4.73,0,0,1,1.1,10.31a4.9,4.9,0,0,0-.68,2.4,3.31,3.31,0,0,0,.62,2,3.47,3.47,0,0,0,1.63,1.2A5,5,0,0,1,2.48,14.51ZM3.66,7.92c-.1-.11-.19-.23-.29-.36a4.65,4.65,0,0,1-.88-2.74,4.6,4.6,0,0,1,.09-.91L2.47,4a5.29,5.29,0,0,0-2,3.94A5.7,5.7,0,0,0,2,8.12,15.75,15.75,0,0,0,3.66,7.92Zm-2.18.67a1.78,1.78,0,0,0-1-.52A3.63,3.63,0,0,0,.77,9.45,3.87,3.87,0,0,1,1.48,8.59Zm3,1.83a4.55,4.55,0,0,1,2.72-.86,5.33,5.33,0,0,1,1,.09l.16-.2a5.15,5.15,0,0,1-1,.11A4.89,4.89,0,0,1,3.78,8.05a4.82,4.82,0,0,0-2.57,2.08,3.81,3.81,0,0,0,2.35,1.19A5,5,0,0,1,4.49,10.42ZM7.1,15.3a5,5,0,0,0,2-3.92A3.71,3.71,0,0,0,9,10.71a2.82,2.82,0,0,0-.49-.25,5.34,5.34,0,0,1-.79.71A4.79,4.79,0,0,1,5,12a5.16,5.16,0,0,1-1.35-.18A5,5,0,0,0,3.14,14a5.39,5.39,0,0,0,.45,2.16,5.09,5.09,0,0,0,.69.05A4.88,4.88,0,0,0,7.1,15.3ZM8.61,9a3.89,3.89,0,0,0,.25-.5,4.44,4.44,0,0,1-.7-.79A4.74,4.74,0,0,1,7.28,5a5.18,5.18,0,0,1,.18-1.36,4.89,4.89,0,0,0-2.1-.46,5.3,5.3,0,0,0-2.16.46,4.8,4.8,0,0,0-.05.67A4.89,4.89,0,0,0,4,7.09,5,5,0,0,0,8,9.1,3.6,3.6,0,0,0,8.61,9ZM9,1.09A5,5,0,0,0,6.6.42a3.29,3.29,0,0,0-2,.61,3.4,3.4,0,0,0-1.2,1.64,5,5,0,0,1,1.39-.19,5.28,5.28,0,0,1,2.75.77A4.79,4.79,0,0,1,9,1.09ZM7.29,10.52a4.87,4.87,0,0,0,.42-.35A4.53,4.53,0,0,0,6.56,10a3.31,3.31,0,0,0-1.94.58,3,3,0,0,0-.72.75l.5,0A4.93,4.93,0,0,0,7.29,10.52Zm.83,6.77C8.12,17,8,16,7.93,15.66a4.57,4.57,0,0,1-.36.29,4.78,4.78,0,0,1-2.76.88,4.41,4.41,0,0,1-.89-.09l.07.11a4.93,4.93,0,0,0,4,2A6,6,0,0,0,8.12,17.29ZM9.29,6.6a3.43,3.43,0,0,0-.58-2A3.06,3.06,0,0,0,8,3.89c0,.15,0,.31,0,.46A5.28,5.28,0,0,0,8.8,7.28a3.84,3.84,0,0,0,.35.43A4.22,4.22,0,0,0,9.29,6.6Zm.47.72a4.89,4.89,0,0,1,1.51-3.54A4.88,4.88,0,0,0,9.19,1.2,3.83,3.83,0,0,0,8,3.55a4,4,0,0,1,.9.94,4.7,4.7,0,0,1,.86,2.74,4.94,4.94,0,0,1-.09.95l.2.16A5.13,5.13,0,0,1,9.76,7.32Zm1.56,8.44a5.18,5.18,0,0,1-.89-.92,4.6,4.6,0,0,1-.86-2.73,5.43,5.43,0,0,1,.1-1L9.46,11a5.05,5.05,0,0,1,.11,1,4.93,4.93,0,0,1-1.51,3.55,4.9,4.9,0,0,0,2.07,2.57A3.76,3.76,0,0,0,11.32,15.76ZM9.45,18.55a4.4,4.4,0,0,1-.86-.7,1.81,1.81,0,0,0-.52,1A3.63,3.63,0,0,0,9.45,18.55Zm.48-8.33c.11-.24.23-.48.36-.71l-.06-.12A7.86,7.86,0,0,1,9.52,9l-.13.06A4,4,0,0,1,9,9.8l.07.13a5.26,5.26,0,0,1,.71.36ZM11.25.44A3.62,3.62,0,0,0,9.87.76a4.87,4.87,0,0,1,.86.7A1.69,1.69,0,0,0,11.25.44ZM11.38,15a5.49,5.49,0,0,0-.86-3,3.39,3.39,0,0,0-.35-.42A4.34,4.34,0,0,0,10,12.75a3.22,3.22,0,0,0,.6,1.95,2.82,2.82,0,0,0,.74.72C11.38,15.28,11.38,15.15,11.38,15Zm.19-6.84a4.55,4.55,0,0,1,2.77-.89,5.41,5.41,0,0,1,1.39.18,4.91,4.91,0,0,0,.46-2.09,5.31,5.31,0,0,0-.46-2.17c-.21,0-.41,0-.63,0A5,5,0,0,0,12.23,4a5,5,0,0,0-2,3.92,3.6,3.6,0,0,0,.06.66l.5.26A5.27,5.27,0,0,1,11.57,8.16ZM14.7,18.28a3.28,3.28,0,0,0,1.2-1.63,5,5,0,0,1-1.39.19,5.24,5.24,0,0,1-2.74-.77,4.85,4.85,0,0,1-1.44,2.15,4.78,4.78,0,0,0,2.37.67A3.44,3.44,0,0,0,14.7,18.28Zm1.43-2.55c0-.21,0-.43,0-.65a4.93,4.93,0,0,0-.87-2.86,5,5,0,0,0-3.91-2,3.79,3.79,0,0,0-.67.06c-.09.15-.18.32-.26.49a5.34,5.34,0,0,1,.71.79A4.87,4.87,0,0,1,12,14.39a5.39,5.39,0,0,1-.17,1.33,4.92,4.92,0,0,0,2.1.46A5.42,5.42,0,0,0,16.13,15.73Zm2-6.54A3.78,3.78,0,0,0,15.77,8a4.14,4.14,0,0,1-.93.89,4.8,4.8,0,0,1-2.75.86,5.11,5.11,0,0,1-.95-.1L11,9.86a4.86,4.86,0,0,1,1-.11,4.93,4.93,0,0,1,3.55,1.51A4.86,4.86,0,0,0,18.12,9.19ZM11.77,3.37a4.59,4.59,0,0,1,2.72-.88,4.7,4.7,0,0,1,.92.09l-.08-.12a5,5,0,0,0-3.94-2A5.61,5.61,0,0,0,11.2,2a15.84,15.84,0,0,0,.21,1.65A2.17,2.17,0,0,1,11.77,3.37ZM14.7,8.69A3.06,3.06,0,0,0,15.44,8H15a5.8,5.8,0,0,0-3,.86,2.86,2.86,0,0,0-.43.35,5.24,5.24,0,0,0,1.1.13A3.38,3.38,0,0,0,14.7,8.69Zm2.16,6.64a4.76,4.76,0,0,0,2-3.95,5.87,5.87,0,0,0-1.57-.18c-.36,0-1.28.15-1.65.19a3.05,3.05,0,0,1,.29.36,4.83,4.83,0,0,1,.88,2.76,4.41,4.41,0,0,1-.09.89Zm2-8.72a3.41,3.41,0,0,0-.61-2,3.28,3.28,0,0,0-1.64-1.2,5,5,0,0,1,.19,1.39,5.31,5.31,0,0,1-.77,2.75A4.92,4.92,0,0,1,18.23,9,4.92,4.92,0,0,0,18.9,6.61Zm-.33,3.26a5.9,5.9,0,0,1-.71.86,1.81,1.81,0,0,0,1,.52A3.61,3.61,0,0,0,18.57,9.87Z"/></g></g></svg>