<svg xmlns="http://www.w3.org/2000/svg" 
viewBox="0 0 24.7 24.69"
height="50em"
fill="white">
<defs><style>.cls-1{fill:#231f20;}</style>
</defs>
<g id="Layer_1-2" data-name="Layer 1"><path class="cls-1" d="M12.14,24.64a4.73,4.73,0,0,1-3.07-1.95,4.9,4.9,0,0,1-1.47.22,5,5,0,0,1-4.09-2,4.75,4.75,0,0,1-.86-2.74,4.36,4.36,0,0,1,.06-.81A5.18,5.18,0,0,1,0,12.89a3.64,3.64,0,0,1,.06-.74A4.78,4.78,0,0,1,2,9.07,5.22,5.22,0,0,1,1.79,7.6a5.06,5.06,0,0,1,2-4.09,4.8,4.8,0,0,1,2.74-.86,4.43,4.43,0,0,1,.81.07A5.18,5.18,0,0,1,11.8,0a4.65,4.65,0,0,1,.75.06,4.78,4.78,0,0,1,3.08,2A4.94,4.94,0,0,1,17.1,1.8a5,5,0,0,1,4.08,2A4.75,4.75,0,0,1,22,6.54a4.36,4.36,0,0,1-.07.81,5.16,5.16,0,0,1,2.73,4.44,3.94,3.94,0,0,1-.08.77,4.66,4.66,0,0,1-1.94,3.07,5.29,5.29,0,0,1,.22,1.47,5,5,0,0,1-2,4.08,4.76,4.76,0,0,1-2.76.86,5.25,5.25,0,0,1-.79-.06,5.15,5.15,0,0,1-4.45,2.71A4.53,4.53,0,0,1,12.14,24.64Zm-9-11.71,1.12-1.12A4.57,4.57,0,0,1,2.66,10.4a4.24,4.24,0,0,1-.44-.77,3.73,3.73,0,0,0-2,2.56,3.75,3.75,0,0,0,0,.48,3.3,3.3,0,0,0,.25,1.27,1.47,1.47,0,0,0,.78.26C1.85,14.2,2.36,13.68,3.13,12.93Zm1.52,1.28a5.76,5.76,0,0,1,.63-.37A1,1,0,0,1,5,13.31a.31.31,0,0,1,0-.13,9.83,9.83,0,0,0,.69-.85A5,5,0,0,1,4.69,12L2.22,14a1.58,1.58,0,0,1-1,.4,1.56,1.56,0,0,1-.72-.22,5.39,5.39,0,0,0,2.37,2.42A4.75,4.75,0,0,1,4.65,14.21Zm.16-6.05a4.19,4.19,0,0,1,.78.07,3,3,0,0,1,.71.18c0-.36.14-.57.31-.63s.68-.06,1.08-.1a5.83,5.83,0,0,1-.53-1c-1.51-.18-2.88-.34-3.11-.38-.82-.11-1.11-.37-1.3-1A4.72,4.72,0,0,0,2.45,7,5.43,5.43,0,0,0,2.7,8.66,4.78,4.78,0,0,1,4.81,8.16ZM7,6.24a4.6,4.6,0,0,1-.19-1.33,4,4,0,0,1,.06-.78,4.31,4.31,0,0,1,.24-.87,4.6,4.6,0,0,0-1.22-.17,3.39,3.39,0,0,0-2,.59A3.25,3.25,0,0,0,2.82,5.09c.26,1.15,1.1,1.15,2.6,1.15ZM6.24,9.82v-.6A5.28,5.28,0,0,0,5.46,9,3.6,3.6,0,0,0,4.73,9a5.21,5.21,0,0,0-1.79.33,4.07,4.07,0,0,0,.37.65A4.35,4.35,0,0,0,4.8,11.26Zm0,9.45V17.69a4.69,4.69,0,0,1-1.35.19,3.9,3.9,0,0,1-.76-.06,5.46,5.46,0,0,1-.88-.24,4.65,4.65,0,0,0-.17,1.21,3.39,3.39,0,0,0,.6,2,3.28,3.28,0,0,0,1.39,1.07C6.22,21.61,6.24,20.77,6.24,19.27Zm0-2.35v-2l-.42-.43a4.52,4.52,0,0,0-.71.41,4.74,4.74,0,0,0-1.58,2,6.38,6.38,0,0,0,.72.19,4.52,4.52,0,0,0,.74.06A4.89,4.89,0,0,0,6.24,16.92ZM8.65,22a4.69,4.69,0,0,1-.49-2.13,3.9,3.9,0,0,1,.06-.76,4.35,4.35,0,0,1,.18-.71c-.35,0-.56-.15-.62-.31A9.4,9.4,0,0,0,7.66,17a4.78,4.78,0,0,1-1,.53c-.17,1.52-.35,2.88-.37,3.11a1.3,1.3,0,0,1-1,1.31,4.94,4.94,0,0,0,1.72.3A5.68,5.68,0,0,0,8.65,22ZM6.24,10.76l-.94.77a5.13,5.13,0,0,0,.84.27l0,0,.06.06Zm0,2.72V12.39l-.24,0a1.06,1.06,0,0,0-.09.42,1.31,1.31,0,0,0,.24.71Zm1.33,2.87V16.3h.08l-.74-.76c0,.39-.09.79-.13,1.2A5.79,5.79,0,0,0,7.57,16.35Zm1.77-2.17A4.85,4.85,0,0,0,8,14a5.41,5.41,0,0,0-1,.09l0,.4.21.2L8.31,15.8A3.55,3.55,0,0,0,9.34,14.18Zm-.4-2.65A5.3,5.3,0,0,0,7.35,9.82l-.3.26v1.85A3.53,3.53,0,0,0,8.94,11.53Zm.52,1.83A3.56,3.56,0,0,0,9,11.73a4.56,4.56,0,0,1-2,.66v1h.4a5.12,5.12,0,0,1,2,.38C9.45,13.6,9.46,13.48,9.46,13.36ZM8,8.06a1.46,1.46,0,0,1-.16-.19,1.18,1.18,0,0,0-.69.92l.07.05ZM9.81,6.24l.43-.41a5.13,5.13,0,0,0-.41-.72,4.89,4.89,0,0,0-2-1.58,3.76,3.76,0,0,0-.2.73A4.4,4.4,0,0,0,7.59,5a4.84,4.84,0,0,0,.18,1.25Zm-1,11.24-.77-.78-.19.15a1.21,1.21,0,0,0,.92.7Zm1.62-7.9a4.41,4.41,0,0,1-1.87-.94l-.69.68a5.33,5.33,0,0,1,1.43,1.95A3.48,3.48,0,0,0,10.45,9.58ZM9.15,6.91c-.39,0-.79-.09-1.2-.12a5.79,5.79,0,0,0,.39.79H8.4v.09Zm3.53-2.22c-1-1.19-1.8-2.28-1.95-2.47a1.57,1.57,0,0,1-.39-.94,1.57,1.57,0,0,1,.21-.72A5.44,5.44,0,0,0,8.13,2.91a4.79,4.79,0,0,1,2.35,1.74,3.7,3.7,0,0,1,.37.63A1,1,0,0,1,11.37,5a.29.29,0,0,1,.14,0,10.6,10.6,0,0,0,.86.69A4.38,4.38,0,0,1,12.68,4.69ZM11.26,15.38a3.38,3.38,0,0,0-1.68-1.13,4.86,4.86,0,0,1-.94,1.87l.67.68A5.36,5.36,0,0,1,11.26,15.38ZM10.69,8a5,5,0,0,0-.09-1l-.39,0L10,7.21,8.9,8.31a3.51,3.51,0,0,0,1.62,1A5.71,5.71,0,0,0,10.69,8Zm-.76,13.4a4.77,4.77,0,0,0,1.33-1.49L9.81,18.46H9.22a3.72,3.72,0,0,0-.22.79,4.11,4.11,0,0,0-.06.69,5.25,5.25,0,0,0,.34,1.83A4.56,4.56,0,0,0,9.93,21.39ZM13.17,15a3.63,3.63,0,0,1,.65,0,4.56,4.56,0,0,1,1.46-1.82,5,5,0,0,1-.3-1.66,3.64,3.64,0,0,1,0-.67,5,5,0,0,1-1.84-1.46,4.86,4.86,0,0,1-1.65.29,5,5,0,0,1-.67,0A4.66,4.66,0,0,1,9.4,11.49a4.68,4.68,0,0,1,.31,1.69c0,.22,0,.43,0,.64a4.57,4.57,0,0,1,1.82,1.47A4.89,4.89,0,0,1,13.17,15Zm.77,9.24a1.41,1.41,0,0,0,.26-.77c0-.6-.52-1.13-1.27-1.89L11.8,20.45A4.69,4.69,0,0,1,10.4,22a4.37,4.37,0,0,1-.78.45,3.82,3.82,0,0,0,2.57,2,2.35,2.35,0,0,0,.45,0A3.67,3.67,0,0,0,13.94,24.22Zm-3.58-6.58h1.57a3.4,3.4,0,0,0-.42-1.88,5.56,5.56,0,0,0-1.7,1.58l.27.3Zm3.94-15a5.77,5.77,0,0,1,.76-.44,3.72,3.72,0,0,0-2.55-2,2.7,2.7,0,0,0-.49,0,3.35,3.35,0,0,0-1.27.26,1.4,1.4,0,0,0-.25.77c0,.6.51,1.13,1.27,1.88l1.11,1.13A4.74,4.74,0,0,1,14.3,2.66ZM11.8,18.55s0,0-.05,0l.08-.06H10.76c.24.3.5.61.75.93A4.9,4.9,0,0,0,11.8,18.55ZM13,9.06a4.83,4.83,0,0,1-.64-2h-1a3.22,3.22,0,0,1,0,.43,5.29,5.29,0,0,1-.4,2h.34A3.71,3.71,0,0,0,13,9.06Zm-.64-2.82a2.12,2.12,0,0,1,0-.24,1.1,1.1,0,0,0-.42-.09,1.44,1.44,0,0,0-.72.24s0,.06,0,.09Zm1,11.4s0-.18,0-.39a5.06,5.06,0,0,1,.38-2l-.36,0a3.82,3.82,0,0,0-1.63.41,4.73,4.73,0,0,1,.66,2Zm3.2,4.14A4.75,4.75,0,0,1,14.2,20c-.13-.2-.26-.41-.37-.62a.87.87,0,0,1-.53.24.21.21,0,0,1-.13,0c-.16-.16-.53-.44-.84-.69A5.49,5.49,0,0,1,12,20C13,21.2,13.8,22.28,14,22.48a1.62,1.62,0,0,1,.41.93,1.58,1.58,0,0,1-.23.72A5.29,5.29,0,0,0,16.55,21.78ZM13.5,18.54s0-.06,0-.08H12.39l0,.24a1,1,0,0,0,.42.08A1.21,1.21,0,0,0,13.5,18.54ZM14.87,7.35a2.65,2.65,0,0,1-.25-.3H12.76a3.61,3.61,0,0,0,.41,1.89A5.26,5.26,0,0,0,14.87,7.35Zm-.95-1.11c-.24-.29-.49-.62-.75-.93a5.47,5.47,0,0,0-.29.83l0,0-.06.06Zm2.14,2.34-.68-.68h0a5.13,5.13,0,0,1-2,1.43,3.56,3.56,0,0,0,1.69,1.14A4.53,4.53,0,0,1,16.06,8.58Zm-.37-3.12a5.51,5.51,0,0,0,.06-.71,5.18,5.18,0,0,0-.34-1.81,5,5,0,0,0-.65.37A4.65,4.65,0,0,0,13.43,4.8l1.44,1.44h.6A4.93,4.93,0,0,0,15.69,5.46Zm-1,12,1.12-1.12a3.65,3.65,0,0,0-1.62-1,5.5,5.5,0,0,0-.1,2.33l.4,0C14.55,17.63,14.61,17.56,14.68,17.5Zm2.11-2.12a5.51,5.51,0,0,1-1.41-2,3.47,3.47,0,0,0-1.14,1.68,4.71,4.71,0,0,1,1.88.95ZM17,20.45a3.61,3.61,0,0,0,.07-.73,5,5,0,0,0-.18-1.26h-2l-.42.42a3.81,3.81,0,0,0,.4.71,5,5,0,0,0,2,1.58A3.83,3.83,0,0,0,17,20.45Zm.61-8.14v-1h-.39a5.25,5.25,0,0,1-2-.39c0,.12,0,.24,0,.36A3.62,3.62,0,0,0,15.64,13,4.58,4.58,0,0,1,17.63,12.31Zm0-1.7c0-.13,0-.26,0-.39l-.2-.21L16.37,8.9a3.53,3.53,0,0,0-1,1.62,5.18,5.18,0,0,0,1.36.18A5.39,5.39,0,0,0,17.67,10.61Zm-1.32,6.51h-.06V17l-.75.75,1.19.12A5.74,5.74,0,0,0,16.35,17.12Zm1.28-2.5V12.76a3.44,3.44,0,0,0-1.87.42,5.41,5.41,0,0,0,1.57,1.7A2.43,2.43,0,0,0,17.63,14.62Zm-.8-6.78a1.22,1.22,0,0,0-.93-.69.59.59,0,0,0,0,.08l.78.77A1.6,1.6,0,0,1,16.83,7.84ZM18,7.17c.17-1.52.35-2.89.37-3.12a1.3,1.3,0,0,1,1.06-1.3,4.77,4.77,0,0,0-1.73-.3A5.37,5.37,0,0,0,16,2.7a4.85,4.85,0,0,1,.49,2.12,4,4,0,0,1-.06.77,4.1,4.1,0,0,1-.18.71c.35,0,.56.14.62.31A9.06,9.06,0,0,0,17,7.7,4.17,4.17,0,0,1,18,7.17Zm-.44,8.73-.09,0-.76.76.15.2A1.25,1.25,0,0,0,17.55,15.9Zm4.7,1.79A5.62,5.62,0,0,0,22,16.05a4.9,4.9,0,0,1-2.1.49,4.43,4.43,0,0,1-.81-.07,5.35,5.35,0,0,1-.69-.17c0,.35-.15.55-.33.61S17.39,17,17,17a4.61,4.61,0,0,1,.52,1c1.53.17,2.88.34,3.12.37A1.31,1.31,0,0,1,22,19.42,5,5,0,0,0,22.25,17.69ZM17.91,8a4.5,4.5,0,0,0-.79.4.12.12,0,0,0,0,.05H17l.76.75C17.82,8.77,17.86,8.36,17.91,8ZM20.77,21a3.13,3.13,0,0,0,1.09-1.39c-.25-1.15-1.09-1.16-2.59-1.16H17.69a4.91,4.91,0,0,1,.19,1.33,4.11,4.11,0,0,1-.07.78,4.72,4.72,0,0,1-.23.86,4.36,4.36,0,0,0,1.23.18A3.34,3.34,0,0,0,20.77,21ZM21.6,5.9a3.4,3.4,0,0,0-.59-2,3.27,3.27,0,0,0-1.4-1.08c-1.15.25-1.16,1.09-1.16,2.59V7a5,5,0,0,1,1.34-.19,5.26,5.26,0,0,1,.78.07,4,4,0,0,1,.86.23A4.53,4.53,0,0,0,21.6,5.9Zm-2,3.93a4.79,4.79,0,0,0,1.58-2,4,4,0,0,0-.73-.21,5.67,5.67,0,0,0-.71-.06,5.06,5.06,0,0,0-1.28.17V9.82l.42.42A4.3,4.3,0,0,0,19.59,9.83Zm-.81,2.09a1.31,1.31,0,0,0-.25-.73l-.08,0v1.1l.25,0A1.24,1.24,0,0,0,18.78,11.92Zm.6,1.26a4.62,4.62,0,0,0-.84-.29l0,0-.07-.07v1.07C18.75,13.68,19.07,13.43,19.38,13.18Zm2.38,2.23a4.3,4.3,0,0,0-.39-.65,4.48,4.48,0,0,0-1.47-1.33l-1.45,1.45v.59a3.72,3.72,0,0,0,.79.22,3.54,3.54,0,0,0,.73.06A5.07,5.07,0,0,0,21.76,15.41Zm.7-4.66a1.56,1.56,0,0,1,.95-.41,1.51,1.51,0,0,1,.72.21,5.54,5.54,0,0,0-2.35-2.42A4.64,4.64,0,0,1,20,10.48a5.29,5.29,0,0,1-.62.39,1,1,0,0,1,.24.51.18.18,0,0,1,0,.13c-.15.17-.44.53-.68.86a5,5,0,0,1,1.07.31C21.19,11.73,22.28,10.89,22.46,10.75Zm2,1.76a2.59,2.59,0,0,0,0-.48,3.32,3.32,0,0,0-.26-1.27,1.44,1.44,0,0,0-.77-.27c-.6,0-1.12.52-1.88,1.28l-1.12,1.12A4.64,4.64,0,0,1,22,14.3a4.1,4.1,0,0,1,.46.78A3.79,3.79,0,0,0,24.43,12.51Z"/>    
</g></svg>