<svg xmlns="http://www.w3.org/2000/svg" 
    viewBox="0 0 14.04 14.04"
    fill="grey"
    height="10em"><g id="Layer_2" data-name="Layer 2"><g id="Layer_1-2" data-name="Layer 1"><path class="cls-1" d="M3.12,12a5.07,5.07,0,0,1-.43-.74A4.76,4.76,0,0,1,.86,9.8,4.77,4.77,0,0,1,0,7.06,4.83,4.83,0,0,1,2,3.12a4.68,4.68,0,0,1,.75-.43A4.7,4.7,0,0,1,4.26.86,4.85,4.85,0,0,1,10.94,2a4.68,4.68,0,0,1,.43.75,4.5,4.5,0,0,1,1.81,1.51A4.75,4.75,0,0,1,14,7a4.83,4.83,0,0,1-2,3.94,4.53,4.53,0,0,1-.74.42,4.73,4.73,0,0,1-1.5,1.82A4.7,4.7,0,0,1,7.06,14,4.83,4.83,0,0,1,3.12,12ZM2.24,9.25a5.3,5.3,0,0,1,.48-2.19,4.87,4.87,0,0,1-.48-2.12,5.57,5.57,0,0,1,.11-1.08A5,5,0,0,0,.47,7.7a3.39,3.39,0,0,0,.59,2,3.36,3.36,0,0,0,1.42,1.1A5.31,5.31,0,0,1,2.24,9.25Zm2-4.06a6,6,0,0,1,.6-.36,4.42,4.42,0,0,1,1.46-1.7L6.46,3a5.52,5.52,0,0,0-1.09-.11A5.17,5.17,0,0,0,3,3.47a6.25,6.25,0,0,0-.07.87,5.34,5.34,0,0,0,.33,1.87A4.34,4.34,0,0,1,4.26,5.19Zm2,5.65a4.79,4.79,0,0,1-1-1,4.24,4.24,0,0,1-.36-.61,4.6,4.6,0,0,1-1.7-1.46L3,7.59a5.46,5.46,0,0,0,.44,3.48,5.08,5.08,0,0,0,1,.08A5.3,5.3,0,0,0,6.21,10.84Zm2.92-8.6a5.67,5.67,0,0,1,1.08.12A5,5,0,0,0,6.34.46a3.42,3.42,0,0,0-2,.58A3.35,3.35,0,0,0,3.25,2.49a5.14,5.14,0,0,1,1.56-.25A5.29,5.29,0,0,1,7,2.72,5,5,0,0,1,9.13,2.24ZM4.32,7.06A5,5,0,0,1,4.7,5.15a3.7,3.7,0,0,0-.33.21,3.1,3.1,0,0,0-1,1.2,4.52,4.52,0,0,0,.41.71A4.22,4.22,0,0,0,4.4,8,4.63,4.63,0,0,1,4.32,7.06ZM9.67,13a3.39,3.39,0,0,0,1.1-1.41,5.22,5.22,0,0,1-1.52.22,5.31,5.31,0,0,1-2.19-.46,4.93,4.93,0,0,1-2.12.48,5.5,5.5,0,0,1-1.08-.12,5.06,5.06,0,0,0,3.83,1.88A3.39,3.39,0,0,0,9.67,13ZM8.34,9.22a5.06,5.06,0,0,0,.95-2.88,4,4,0,0,0,0-.6,5.09,5.09,0,0,0-2.91-1,5.67,5.67,0,0,0-.58,0,5,5,0,0,0-1,2.89,4.3,4.3,0,0,0,0,.62,5,5,0,0,0,2.85,1A3.68,3.68,0,0,0,8.34,9.22ZM7.27,10.3A5.57,5.57,0,0,0,8,9.65a4.78,4.78,0,0,1-.92.09,5.14,5.14,0,0,1-1.9-.37l.19.31a3.3,3.3,0,0,0,1.21,1A3.53,3.53,0,0,0,7.27,10.3ZM8.7,4.38a3.19,3.19,0,0,0-1.2-1,3.77,3.77,0,0,0-.71.41,3.62,3.62,0,0,0-.72.63A4.7,4.7,0,0,1,7,4.32a5.07,5.07,0,0,1,1.92.39A3.7,3.7,0,0,0,8.7,4.38Zm2.36,6.23a4.9,4.9,0,0,0,.08-.94,5.63,5.63,0,0,0-.31-1.83,4.84,4.84,0,0,1-1,1,3.34,3.34,0,0,1-.6.35A4.7,4.7,0,0,1,7.72,11a.74.74,0,0,1-.13.08,4.69,4.69,0,0,0,1.12.12A5.33,5.33,0,0,0,11.06,10.61Zm.08-5.24A5.39,5.39,0,0,0,10.6,3a5.41,5.41,0,0,0-2.76.24,3.88,3.88,0,0,1,1,1,3.58,3.58,0,0,1,.36.59,4.67,4.67,0,0,1,1.72,1.47l.09.13A5,5,0,0,0,11.14,5.37ZM9.67,8.68a3.53,3.53,0,0,0,1-1.21,5.53,5.53,0,0,0-.4-.68,4.09,4.09,0,0,0-.65-.73,4.79,4.79,0,0,1-.27,2.82ZM13.6,6.36a3.37,3.37,0,0,0-.59-2,3.22,3.22,0,0,0-1.45-1.12,4.9,4.9,0,0,1,.25,1.56A5.1,5.1,0,0,1,11.33,7a4.81,4.81,0,0,1,.48,2.11,5.1,5.1,0,0,1-.12,1.11A5,5,0,0,0,13.6,6.36Z"/></g></g></svg>